<svg width="56" height="55" viewBox="0 0 56 55" fill="none" xmlns="http://www.w3.org/2000/svg">
<g clip-path="url(#clip0_847_3716)">
<path d="M50.6301 12.9699L40.2502 4.25977L37.3393 7.71222L47.7192 16.4223L50.6301 12.9699ZM18.7682 7.71222L15.8799 4.25977L5.5 12.9473L8.41089 16.3998L18.7682 7.71222ZM29.1933 18.1147H25.8085V31.6537L36.5269 38.0848L38.2193 35.3093L29.1933 29.9613V18.1147ZM28.065 9.08868C16.8502 9.08868 7.7565 18.1824 7.7565 29.3972C7.7565 40.612 16.8277 49.7058 28.065 49.7058C39.2799 49.7058 48.3736 40.612 48.3736 29.3972C48.3736 18.1824 39.2799 9.08868 28.065 9.08868ZM28.065 45.1927C19.3324 45.1927 12.2695 38.1299 12.2695 29.3972C12.2695 20.6646 19.3324 13.6017 28.065 13.6017C36.7977 13.6017 43.8606 20.6646 43.8606 29.3972C43.8606 38.1299 36.7977 45.1927 28.065 45.1927Z" fill="white"/>
</g>
<defs>
<clipPath id="clip0_847_3716">
<rect width="54.1561" height="54.1561" fill="white" transform="translate(0.984375 0.0625)"/>
</clipPath>
</defs>
</svg>
