<svg width="54" height="54" viewBox="0 0 54 54" fill="none" xmlns="http://www.w3.org/2000/svg">
<g clip-path="url(#clip0_847_3710)">
<path d="M20.3718 15.9347H15.9327V20.3737H20.3718V15.9347ZM20.3718 24.8127H15.9327V29.2518H20.3718V24.8127ZM20.3718 7.05664C17.9081 7.05664 15.9327 9.0542 15.9327 11.4957H20.3718V7.05664ZM29.2498 33.6908H24.8108V38.1298H29.2498V33.6908ZM42.5669 7.05664V11.4957H47.0059C47.0059 9.0542 45.0083 7.05664 42.5669 7.05664ZM29.2498 7.05664H24.8108V11.4957H29.2498V7.05664ZM20.3718 38.1298V33.6908H15.9327C15.9327 36.1323 17.9081 38.1298 20.3718 38.1298ZM42.5669 29.2518H47.0059V24.8127H42.5669V29.2518ZM42.5669 20.3737H47.0059V15.9347H42.5669V20.3737ZM42.5669 38.1298C45.0083 38.1298 47.0059 36.1323 47.0059 33.6908H42.5669V38.1298ZM11.4937 15.9347H7.05469V42.5688C7.05469 45.0103 9.03005 47.0079 11.4937 47.0079H38.1279V42.5688H11.4937V15.9347ZM33.6888 11.4957H38.1279V7.05664H33.6888V11.4957ZM33.6888 38.1298H38.1279V33.6908H33.6888V38.1298Z" fill="white"/>
</g>
<defs>
<clipPath id="clip0_847_3710">
<rect width="53.2683" height="53.2683" fill="white" transform="translate(0.398438 0.398438)"/>
</clipPath>
</defs>
</svg>
