<svg width="27" height="27" viewBox="0 0 27 27" fill="none" xmlns="http://www.w3.org/2000/svg">
<path d="M9.55256 17.5754C9.41923 17.5754 9.29423 17.5544 9.17756 17.5124C9.0609 17.4711 8.95256 17.4004 8.85256 17.3004L4.55256 13.0004C4.36923 12.8171 4.28156 12.5794 4.28956 12.2874C4.29823 11.9961 4.39423 11.7587 4.57756 11.5754C4.7609 11.3921 4.99423 11.3004 5.27756 11.3004C5.5609 11.3004 5.79423 11.3921 5.97756 11.5754L9.55256 15.1504L18.0276 6.67539C18.2109 6.49206 18.4486 6.40039 18.7406 6.40039C19.0319 6.40039 19.2692 6.49206 19.4526 6.67539C19.6359 6.85872 19.7276 7.09606 19.7276 7.38739C19.7276 7.67939 19.6359 7.91706 19.4526 8.10039L10.2526 17.3004C10.1526 17.4004 10.0442 17.4711 9.92756 17.5124C9.8109 17.5544 9.6859 17.5754 9.55256 17.5754Z" fill="black"/>
</svg>
